<?xml version="1.0" standalone="no"?>
<!DOCTYPE svg PUBLIC "-//W3C//DTD SVG 20010904//EN"
 "http://www.w3.org/TR/2001/REC-SVG-20010904/DTD/svg10.dtd">
<svg version="1.0" xmlns="http://www.w3.org/2000/svg"
 width="300.000000pt" height="300.000000pt" viewBox="0 0 300.000000 300.000000"
 preserveAspectRatio="xMidYMid meet">
<metadata>
Created by potrace 1.10, written by Peter Selinger 2001-2011
</metadata>
<g transform="translate(0.000000,300.000000) scale(0.100000,-0.100000)"
fill="#000000" stroke="none">
<path d="M2480 1890 c-26 -26 -26 -72 1 -96 19 -17 41 -19 219 -23 l199 -3 3
-198 c3 -189 4 -200 25 -222 29 -31 73 -36 73 -8 0 16 -7 20 -30 20 l-30 0 0
228 0 227 -225 -3 -225 -3 0 33 0 33 255 -3 c251 -3 255 -3 255 18 0 20 -5 20
-250 20 -237 0 -251 -1 -270 -20z"/>
<path d="M604 1731 c-29 -13 -52 -48 -108 -171 -27 -58 -54 -111 -61 -119 -11
-12 -24 7 -76 115 -79 165 -87 174 -155 174 -84 0 -84 0 -84 -286 l0 -243 26
-20 c60 -47 133 -9 144 75 l6 49 29 -46 c64 -104 152 -104 205 1 26 51 35 55
76 35 39 -18 77 -14 107 12 15 14 17 38 17 203 0 170 -2 188 -19 204 -22 20
-78 29 -107 17z m-310 -123 c24 -51 65 -135 90 -187 l46 -94 14 34 c8 19 46
102 85 184 l70 150 50 3 51 3 0 -190 0 -191 -50 0 -50 0 -1 78 -1 77 -61 -127
-62 -127 -45 -1 -45 0 -67 133 -67 132 0 -142 -1 -143 -50 0 -50 0 0 250 0
250 50 0 51 0 43 -92z"/>
<path d="M803 1730 c-51 -21 -54 -40 -51 -289 4 -290 -4 -276 157 -276 130 0
151 11 151 80 0 58 -18 78 -76 84 -34 4 -49 10 -49 21 0 12 17 16 76 20 94 6
109 17 109 80 0 63 -15 74 -109 80 -59 4 -76 8 -76 20 0 10 13 16 40 18 56 5
85 34 85 87 0 66 -22 80 -139 82 -53 2 -106 -2 -118 -7z m227 -75 l0 -45 -73
0 -72 0 2 -56 1 -57 101 2 101 2 0 -51 0 -52 -101 4 -102 3 0 -55 0 -55 72 -3
71 -3 0 -44 0 -45 -120 0 -120 0 0 250 0 250 120 0 120 0 0 -45z"/>
<path d="M1190 1733 c-44 -17 -50 -33 -50 -134 0 -88 2 -100 22 -119 24 -22
77 -27 108 -10 11 6 25 28 31 50 13 42 31 50 70 30 55 -30 65 -144 14 -187
-38 -33 -71 -30 -78 7 -14 68 -99 96 -145 47 -19 -21 -22 -35 -22 -119 0 -125
8 -133 124 -132 115 1 189 26 247 84 143 143 85 409 -102 464 -54 16 -196 29
-219 19z m225 -57 c91 -38 134 -110 135 -224 0 -168 -80 -240 -277 -250 l-103
-5 0 102 0 101 50 0 50 0 0 -55 c0 -50 2 -55 23 -55 41 0 99 21 123 45 12 12
28 42 34 65 25 92 -20 178 -104 199 -75 18 -76 18 -76 -44 l0 -55 -50 0 -50 0
0 101 0 102 103 -5 c61 -4 118 -12 142 -22z"/>
<path d="M1655 1731 c-47 -20 -50 -34 -50 -223 l0 -180 28 -24 c15 -13 41 -24
56 -24 41 0 81 35 81 70 0 16 4 31 9 35 6 3 41 -39 79 -93 83 -116 89 -122
141 -129 36 -5 44 -2 73 28 l33 34 33 -33 32 -34 104 4 c125 4 146 16 146 83
0 58 -27 85 -86 85 -38 0 -45 3 -42 18 3 14 17 18 81 22 90 6 107 19 107 81 0
61 -23 78 -110 81 -59 2 -75 6 -75 18 0 10 13 16 40 18 56 5 85 34 85 87 0 67
-21 79 -145 83 -102 4 -103 4 -136 -26 l-34 -30 -34 30 c-29 25 -40 29 -70 24
-57 -9 -71 -35 -71 -132 0 -45 -4 -86 -10 -89 -5 -3 -33 29 -62 72 -78 114
-107 143 -148 148 -19 3 -44 1 -55 -4z m195 -196 c133 -191 124 -193 118 33
l-3 132 48 0 47 0 0 -250 0 -250 -47 0 -48 1 -100 145 c-55 80 -107 155 -115
166 -14 18 -15 10 -12 -86 l4 -106 -51 0 -51 0 0 190 0 190 48 0 47 0 115
-165z m540 120 l0 -45 -73 0 -73 0 1 -56 1 -57 102 2 102 2 0 -51 0 -52 -102
4 -102 3 -1 -58 -1 -58 70 2 71 2 3 -46 3 -47 -120 0 -121 0 0 250 0 250 120
0 120 0 0 -45z"/>
<path d="M2519 1711 c-24 -25 -28 -36 -24 -63 12 -65 27 -71 186 -71 l142 -1
23 28 c32 37 30 71 -5 107 l-29 29 -132 0 -132 0 -29 -29z m311 -56 l0 -45
-150 0 -150 0 0 45 0 45 150 0 150 0 0 -45z"/>
<path d="M2626 1539 l-26 -20 0 -158 c0 -142 2 -160 19 -175 31 -28 82 -31
114 -6 l27 21 0 159 0 159 -26 20 c-15 12 -39 21 -54 21 -15 0 -39 -9 -54 -21z
m104 -179 l0 -160 -50 0 -50 0 0 160 0 160 50 0 50 0 0 -160z"/>
<path d="M0 1518 c0 -13 8 -18 30 -18 l30 0 0 -225 0 -225 226 0 225 0 -3 -31
-3 -30 -252 1 c-248 1 -253 0 -253 -20 0 -20 5 -20 248 -20 247 0 249 0 270
23 27 28 28 68 4 90 -14 13 -50 16 -210 19 -107 1 -198 6 -203 9 -6 3 -10 84
-9 196 0 175 -2 192 -20 216 -25 31 -80 42 -80 15z"/>
<path d="M873 640 c-57 -34 -92 -129 -74 -197 26 -95 114 -126 189 -66 l39 32
28 -29 c39 -41 93 -48 144 -19 l39 22 29 -22 c25 -20 35 -22 98 -16 40 4 77
14 88 23 18 16 24 77 8 87 -13 7 -6 94 8 108 17 17 13 62 -7 80 -29 26 -151
24 -185 -3 l-26 -20 -33 20 c-48 29 -91 26 -131 -10 -19 -16 -37 -30 -40 -30
-3 0 -19 14 -35 30 -37 36 -90 40 -139 10z m118 -31 c14 -14 19 -30 17 -52 -3
-28 -7 -32 -36 -35 -33 -3 -34 -3 -27 28 5 25 4 31 -6 28 -22 -7 -39 -49 -39
-95 0 -54 17 -64 47 -29 19 23 26 26 38 16 21 -18 19 -28 -14 -61 -36 -35 -88
-40 -116 -9 -23 25 -31 98 -15 143 24 75 106 111 151 66z m204 9 c14 -6 25
-19 25 -29 0 -9 3 -24 6 -33 5 -13 -1 -16 -25 -16 -24 0 -31 4 -31 20 0 24
-18 27 -27 4 -4 -12 7 -27 35 -51 32 -26 42 -42 42 -64 0 -58 -68 -88 -135
-57 -29 13 -30 17 -12 42 11 16 17 16 34 6 11 -7 29 -10 39 -6 15 6 11 13 -29
50 -26 23 -47 46 -47 50 0 24 33 78 52 86 31 12 43 12 73 -2z m255 -17 c0 -27
-3 -29 -55 -36 -40 -5 -55 -11 -55 -22 0 -12 8 -15 40 -10 39 5 40 4 40 -23 0
-26 -4 -29 -37 -32 -28 -2 -39 -8 -41 -22 -4 -17 1 -18 47 -13 l51 6 0 -34 0
-35 -84 0 -85 0 5 108 c3 59 7 112 9 119 4 12 41 18 123 21 40 2 42 1 42 -27z
m-392 -130 c-5 -25 -27 -23 -34 3 -9 36 5 54 23 30 7 -10 12 -25 11 -33z"/>
<path d="M1704 645 c-24 -16 -84 -135 -91 -180 -6 -35 14 -57 93 -100 50 -28
53 -28 77 -12 37 24 71 105 58 135 -17 37 -13 42 20 24 30 -17 30 -18 24 -73
-5 -53 -4 -58 21 -78 49 -38 97 -7 114 75 14 67 27 70 25 7 -1 -27 2 -56 7
-66 20 -40 90 -38 115 2 7 11 15 67 19 126 7 101 6 107 -16 130 -27 29 -49 31
-92 9 -29 -15 -34 -15 -61 1 -37 22 -119 15 -158 -14 l-27 -20 -23 25 c-26 28
-73 32 -105 9z m84 -87 c2 -38 7 -68 12 -68 6 0 10 -13 10 -30 0 -20 -5 -30
-15 -30 -9 0 -15 -9 -15 -25 0 -21 -5 -25 -30 -25 -27 0 -30 3 -24 24 5 23 4
24 -34 19 -47 -6 -59 12 -38 60 65 149 64 148 99 145 l32 -3 3 -67z m222 57
c10 -13 9 -34 -10 -113 -12 -53 -24 -103 -26 -109 -4 -14 -64 -18 -64 -5 0 5
9 44 20 87 11 43 20 80 20 81 0 2 -19 -3 -41 -11 -23 -8 -43 -15 -45 -15 -9 0
-3 69 6 75 10 6 83 22 111 24 9 1 22 -6 29 -14z m146 2 c2 -7 1 -62 -3 -122
l-8 -110 -35 -3 -36 -3 10 76 c7 61 7 78 -4 85 -18 11 -4 77 18 83 33 9 53 7
58 -6z"/>
</g>
</svg>
